/* XPM */
static char * cat_xpm[] = {
"50 50 743 2",
"  	c #34421D",
". 	c #434F2B",
"+ 	c #2D3B16",
"@ 	c #344217",
"# 	c #253A16",
"$ 	c #2B3415",
"% 	c #3B441D",
"& 	c #3F4328",
"* 	c #2C341A",
"= 	c #31361A",
"- 	c #393E22",
"; 	c #3C4A1E",
"> 	c #36491D",
", 	c #23290E",
"' 	c #333C1C",
") 	c #333C16",
"! 	c #3A4B25",
"~ 	c #253215",
"{ 	c #3F4522",
"] 	c #393E1D",
"^ 	c #343D21",
"/ 	c #253319",
"( 	c #242D18",
"_ 	c #3C4423",
": 	c #3B4A21",
"< 	c #3D4D22",
"[ 	c #434A24",
"} 	c #4B532B",
"| 	c #494D24",
"1 	c #465629",
"2 	c #1C260C",
"3 	c #0A0D03",
"4 	c #0A0E02",
"5 	c #1C280D",
"6 	c #444B22",
"7 	c #394217",
"8 	c #3E4E21",
"9 	c #475929",
"0 	c #425028",
"a 	c #415022",
"b 	c #273B19",
"c 	c #2D3B1B",
"d 	c #444C26",
"e 	c #455227",
"f 	c #485429",
"g 	c #3F4C23",
"h 	c #404924",
"i 	c #434B29",
"j 	c #394720",
"k 	c #2D421A",
"l 	c #303D1E",
"m 	c #171C0A",
"n 	c #141C07",
"o 	c #19240A",
"p 	c #060A02",
"q 	c #000000",
"r 	c #060902",
"s 	c #141C09",
"t 	c #191E0D",
"u 	c #424523",
"v 	c #3F4821",
"w 	c #354321",
"x 	c #3B4626",
"y 	c #2D3613",
"z 	c #161909",
"A 	c #020301",
"B 	c #1A200E",
"C 	c #4A4A25",
"D 	c #2E3B21",
"E 	c #414A1E",
"F 	c #464D2A",
"G 	c #323616",
"H 	c #292E14",
"I 	c #2D3512",
"J 	c #151E0A",
"K 	c #212C12",
"L 	c #363F1A",
"M 	c #2E4217",
"N 	c #4A4C2A",
"O 	c #3E4425",
"P 	c #424C24",
"Q 	c #343C19",
"R 	c #1B2108",
"S 	c #181A0F",
"T 	c #1F2915",
"U 	c #242F15",
"V 	c #303B1D",
"W 	c #282D16",
"X 	c #020201",
"Y 	c #2F3C19",
"Z 	c #454C2C",
"` 	c #414629",
" .	c #3E4528",
"..	c #394817",
"+.	c #4B5924",
"@.	c #4B5425",
"#.	c #404C25",
"$.	c #2A3014",
"%.	c #32371D",
"&.	c #4C5527",
"*.	c #43453F",
"=.	c #0C0C0C",
"-.	c #1C2C10",
";.	c #444C23",
">.	c #445224",
",.	c #474F2A",
"'.	c #53552C",
").	c #555C27",
"!.	c #4A531F",
"~.	c #5B5E33",
"{.	c #60643A",
"].	c #4E5933",
"^.	c #555830",
"/.	c #252B0E",
"(.	c #2C3818",
"_.	c #535B32",
":.	c #525B2C",
"<.	c #4D542E",
"[.	c #596040",
"}.	c #292D19",
"|.	c #232914",
"1.	c #58602E",
"2.	c #5B5D2E",
"3.	c #4E5238",
"4.	c #433E20",
"5.	c #455128",
"6.	c #484420",
"7.	c #3C4A23",
"8.	c #282E18",
"9.	c #0D0801",
"0.	c #140E01",
"a.	c #141100",
"b.	c #141200",
"c.	c #130B02",
"d.	c #140A02",
"e.	c #3A3A1C",
"f.	c #42441D",
"g.	c #364A22",
"h.	c #3E4A29",
"i.	c #3C4329",
"j.	c #4C5A2B",
"k.	c #5B6A35",
"l.	c #616D3D",
"m.	c #445231",
"n.	c #48502A",
"o.	c #4C5531",
"p.	c #413E1F",
"q.	c #262A16",
"r.	c #9A4B10",
"s.	c #EEA70C",
"t.	c #EDCD00",
"u.	c #EDC700",
"v.	c #EDC800",
"w.	c #EDC501",
"x.	c #E88413",
"y.	c #EE7D17",
"z.	c #5B3510",
"A.	c #2F3418",
"B.	c #45542C",
"C.	c #49552B",
"D.	c #3E5223",
"E.	c #404527",
"F.	c #38451F",
"G.	c #2F331A",
"H.	c #AA5A15",
"I.	c #F37918",
"J.	c #FFB60B",
"K.	c #FFBD08",
"L.	c #FE8E14",
"M.	c #FE9313",
"N.	c #FE9214",
"O.	c #FFC606",
"P.	c #FE9314",
"Q.	c #FF8819",
"R.	c #65350B",
"S.	c #222C12",
"T.	c #556336",
"U.	c #606D36",
"V.	c #303322",
"W.	c #454C31",
"X.	c #344221",
"Y.	c #090B05",
"Z.	c #D36E13",
"`.	c #FF8219",
" +	c #FBB20A",
".+	c #FBAE0B",
"++	c #F7731A",
"@+	c #F77919",
"#+	c #F7771A",
"$+	c #FCBC08",
"%+	c #F99113",
"&+	c #FF8619",
"*+	c #5C310A",
"=+	c #2B3618",
"-+	c #292E1A",
";+	c #545C3A",
">+	c #5D623A",
",+	c #242D14",
"'+	c #3D4324",
")+	c #2D3019",
"!+	c #A05511",
"~+	c #FB8217",
"{+	c #FF841A",
"]+	c #FFB90B",
"^+	c #FFCF06",
"/+	c #FFAA0F",
"(+	c #FFAD0E",
"_+	c #FFAD0F",
":+	c #FFD205",
"<+	c #FF9715",
"[+	c #FF891A",
"}+	c #D47015",
"|+	c #78420F",
"1+	c #2C3718",
"2+	c #1F2911",
"3+	c #3B4922",
"4+	c #0E0A02",
"5+	c #9B510E",
"6+	c #9A4D09",
"7+	c #934508",
"8+	c #956401",
"9+	c #988500",
"0+	c #988400",
"a+	c #987E00",
"b+	c #945106",
"c+	c #934708",
"d+	c #A4550C",
"e+	c #7C410C",
"f+	c #111407",
"g+	c #323A19",
"h+	c #212D12",
"i+	c #252C15",
"j+	c #333A1D",
"k+	c #313D1B",
"l+	c #363E1B",
"m+	c #313817",
"n+	c #090B03",
"o+	c #191F24",
"p+	c #23292E",
"q+	c #21252D",
"r+	c #21232D",
"s+	c #21262C",
"t+	c #242A2F",
"u+	c #080E14",
"v+	c #2B321A",
"w+	c #232715",
"x+	c #263212",
"y+	c #1F2A11",
"z+	c #333B24",
"A+	c #121A08",
"B+	c #090909",
"C+	c #0B0B0C",
"D+	c #7C7C7C",
"E+	c #979798",
"F+	c #939393",
"G+	c #9B9B9B",
"H+	c #525252",
"I+	c #131414",
"J+	c #0E0E0E",
"K+	c #30342B",
"L+	c #43492D",
"M+	c #373F25",
"N+	c #202415",
"O+	c #080808",
"P+	c #1B1B1B",
"Q+	c #797979",
"R+	c #7D7D7D",
"S+	c #C8C8C8",
"T+	c #DCDCDC",
"U+	c #D9D9D9",
"V+	c #DEDEDE",
"W+	c #A8A8A8",
"X+	c #828282",
"Y+	c #606060",
"Z+	c #010101",
"`+	c #020202",
" @	c #2F332C",
".@	c #7D7E7C",
"+@	c #787878",
"@@	c #767676",
"#@	c #747474",
"$@	c #CFCFCF",
"%@	c #D4D4D4",
"&@	c #DADADA",
"*@	c #DDDDDD",
"=@	c #D6D6D6",
"-@	c #B7B7B7",
";@	c #676767",
">@	c #6A6A6A",
",@	c #636461",
"'@	c #354916",
")@	c #7D7D7C",
"!@	c #BDBDBD",
"~@	c #CDCDCE",
"{@	c #CBCBCB",
"]@	c #CDCDCD",
"^@	c #DBDBDB",
"/@	c #CCCCCC",
"(@	c #CCCCCD",
"_@	c #D1D1D1",
":@	c #A6A6A6",
"<@	c #72736E",
"[@	c #3B4D20",
"}@	c #4B612C",
"|@	c #425428",
"1@	c #5A6434",
"2@	c #45511E",
"3@	c #7E7F7E",
"4@	c #E2E6EA",
"5@	c #DDE3E8",
"6@	c #DDE2E7",
"7@	c #DBDBDC",
"8@	c #DCDDDE",
"9@	c #DDE3E9",
"0@	c #E9EAEC",
"a@	c #B0AFAF",
"b@	c #70726D",
"c@	c #62685C",
"d@	c #96999A",
"e@	c #DDA573",
"f@	c #F1A25C",
"g@	c #EDA260",
"h@	c #EE9F5A",
"i@	c #EEA15E",
"j@	c #DCD7D2",
"k@	c #DADCDE",
"l@	c #DADDDF",
"m@	c #DED1C5",
"n@	c #EC9F5A",
"o@	c #EBA261",
"p@	c #EBA362",
"q@	c #BCAA99",
"r@	c #828785",
"s@	c #5C6153",
"t@	c #434926",
"u@	c #6B7170",
"v@	c #DD7B25",
"w@	c #FF7C04",
"x@	c #FA7B09",
"y@	c #F7841E",
"z@	c #EAA66A",
"A@	c #DCD7D3",
"B@	c #DADCDD",
"C@	c #DADDDE",
"D@	c #DDD4CC",
"E@	c #EDA25E",
"F@	c #FB7905",
"G@	c #FA7B0B",
"H@	c #FF7C05",
"I@	c #9C7A5B",
"J@	c #5E6861",
"K@	c #504E27",
"L@	c #484A1F",
"M@	c #676B69",
"N@	c #BE7F47",
"O@	c #EE8120",
"P@	c #FC7C08",
"Q@	c #F19848",
"R@	c #D8E3EC",
"S@	c #DBDBDD",
"T@	c #DADEE2",
"U@	c #DCD5D0",
"V@	c #EF9646",
"W@	c #FD8112",
"X@	c #E67F22",
"Y@	c #897662",
"Z@	c #525B54",
"`@	c #2E361E",
" #	c #647075",
".#	c #B37E4F",
"+#	c #F88116",
"@#	c #EDA05C",
"##	c #DADEE1",
"$#	c #DADFE2",
"%#	c #DBD0C7",
"&#	c #E8832B",
"*#	c #8E7760",
"=#	c #3F453E",
"-#	c #343B28",
";#	c #696861",
">#	c #AEA69F",
",#	c #E0DCDA",
"'#	c #DBDCDC",
")#	c #D0D1D2",
"!#	c #D8D8D9",
"~#	c #D3D3D3",
"{#	c #CBCCCD",
"]#	c #D4D5D5",
"^#	c #868482",
"/#	c #4A4D46",
"(#	c #252E16",
"_#	c #1C260F",
":#	c #636562",
"<#	c #A6A9AB",
"[#	c #E0E1E2",
"}#	c #CECECE",
"|#	c #8A8A8A",
"1#	c #817F7E",
"2#	c #B9B8B8",
"3#	c #A2A3A4",
"4#	c #7B7A79",
"5#	c #AAA9A7",
"6#	c #838485",
"7#	c #4B4F44",
"8#	c #656662",
"9#	c #E4E4E4",
"0#	c #CACACA",
"a#	c #8B8C8D",
"b#	c #D7D9DA",
"c#	c #E89447",
"d#	c #A37E5D",
"e#	c #B4B9BE",
"f#	c #DFDFDF",
"g#	c #9A9A9A",
"h#	c #CED2D5",
"i#	c #E7AA6C",
"j#	c #B47D4B",
"k#	c #99A0A5",
"l#	c #D2D2D2",
"m#	c #848484",
"n#	c #54584A",
"o#	c #676965",
"p#	c #AAAAAA",
"q#	c #E7E7E7",
"r#	c #C5C6C7",
"s#	c #7A7977",
"t#	c #EF9D55",
"u#	c #FF8912",
"v#	c #A1744C",
"w#	c #A9AFB6",
"x#	c #E0E0E0",
"y#	c #8A8D91",
"z#	c #DC8E48",
"A#	c #FF8D14",
"B#	c #BA773C",
"C#	c #838C94",
"D#	c #D7D7D7",
"E#	c #56584C",
"F#	c #4D5144",
"G#	c #7C7D7B",
"H#	c #B4B4B4",
"I#	c #D5D6D7",
"J#	c #B2B1B0",
"K#	c #B37D4C",
"L#	c #B5753B",
"M#	c #B29E8C",
"N#	c #CACDD0",
"O#	c #BFC1C3",
"P#	c #B7895F",
"Q#	c #B57337",
"R#	c #B19379",
"S#	c #BDC1C4",
"T#	c #A4A4A3",
"U#	c #444A39",
"V#	c #666762",
"W#	c #E5E4E4",
"X#	c #A8AFB4",
"Y#	c #9CA4AB",
"Z#	c #CACDCF",
"`#	c #E1E0E0",
" $	c #BBBBBB",
".$	c #E2E2E2",
"+$	c #ADB3B8",
"@$	c #8D969D",
"#$	c #B7BBBE",
"$$	c #E8E7E7",
"%$	c #D5D5D5",
"&$	c #7C7D7C",
"*$	c #303D1F",
"=$	c #3E5229",
"-$	c #65675F",
";$	c #929291",
">$	c #E1E1E1",
",$	c #D0D0D0",
"'$	c #A1A1A1",
")$	c #E3E3E3",
"!$	c #B6B6B6",
"~$	c #747570",
"{$	c #3F4329",
"]$	c #54562E",
"^$	c #5F6352",
"/$	c #828381",
"($	c #C6C6C6",
"_$	c #B2B2B2",
":$	c #757770",
"<$	c #4B562F",
"[$	c #525532",
"}$	c #606532",
"|$	c #5B6149",
"1$	c #7A7A79",
"2$	c #7B7C7A",
"3$	c #6B6C6B",
"4$	c #69696A",
"5$	c #6E6E6F",
"6$	c #808080",
"7$	c #68696A",
"8$	c #696A6A",
"9$	c #666664",
"0$	c #485231",
"a$	c #595633",
"b$	c #5B5C3B",
"c$	c #444A29",
"d$	c #3E4629",
"e$	c #3F4B24",
"f$	c #2C3119",
"g$	c #030202",
"h$	c #343231",
"i$	c #090706",
"j$	c #121407",
"k$	c #444A2B",
"l$	c #263413",
"m$	c #151A06",
"n$	c #593410",
"o$	c #A76321",
"p$	c #29241D",
"q$	c #BC6C1E",
"r$	c #160C03",
"s$	c #20241C",
"t$	c #646A5C",
"u$	c #4B5939",
"v$	c #3D4E24",
"w$	c #424B28",
"x$	c #3B4021",
"y$	c #415827",
"z$	c #394A25",
"A$	c #1C220F",
"B$	c #B3B3B3",
"C$	c #363636",
"D$	c #160B01",
"E$	c #68523E",
"F$	c #B1AFAD",
"G$	c #4C3219",
"H$	c #878787",
"I$	c #262626",
"J$	c #3F3F3E",
"K$	c #364124",
"L$	c #414F38",
"M$	c #757674",
"N$	c #727370",
"O$	c #71726F",
"P$	c #415031",
"Q$	c #3A431D",
"R$	c #1C210B",
"S$	c #F4F4F4",
"T$	c #4D4F50",
"U$	c #24282B",
"V$	c #D7D7D8",
"W$	c #000004",
"X$	c #767677",
"Y$	c #969696",
"Z$	c #2C2C2C",
"`$	c #010100",
" %	c #1D260F",
".%	c #525C4A",
"+%	c #B1B1B1",
"@%	c #6F716B",
"#%	c #586243",
"$%	c #56622E",
"%%	c #384620",
"&%	c #181C0A",
"*%	c #A2A2A2",
"=%	c #EAEAEA",
"-%	c #666666",
";%	c #8B8B8B",
">%	c #757575",
",%	c #F6F6F6",
"'%	c #545454",
")%	c #141C0A",
"!%	c #272B13",
"~%	c #464F39",
"{%	c #6F716C",
"]%	c #A7A7A7",
"^%	c #787A74",
"/%	c #3B4923",
"(%	c #161B08",
"_%	c #A5A5A5",
":%	c #EEEEEE",
"<%	c #EDEDED",
"[%	c #636363",
"}%	c #B9B9B9",
"|%	c #E7EAED",
"1%	c #8D8F91",
"2%	c #2F2F2F",
"3%	c #4F5443",
"4%	c #8D8D8D",
"5%	c #25320F",
"6%	c #3D4428",
"7%	c #181907",
"8%	c #999999",
"9%	c #DADBDC",
"0%	c #DDDEDF",
"a%	c #DECEC1",
"b%	c #EDE5DE",
"c%	c #A6A7A8",
"d%	c #2E2E2E",
"e%	c #525747",
"f%	c #393D22",
"g%	c #121608",
"h%	c #686868",
"i%	c #C1C1C1",
"j%	c #DBDCDD",
"k%	c #E0CDBC",
"l%	c #DBDAD9",
"m%	c #F29543",
"n%	c #E7B589",
"o%	c #E3E9EF",
"p%	c #C5C5C5",
"q%	c #222222",
"r%	c #213214",
"s%	c #363E22",
"t%	c #5A5B4E",
"u%	c #8A8B8A",
"v%	c #131909",
"w%	c #656565",
"x%	c #C0C0C0",
"y%	c #DADFE4",
"z%	c #E3C2A6",
"A%	c #F78621",
"B%	c #DDD4CD",
"C%	c #F2933E",
"D%	c #E7B587",
"E%	c #D9E0E7",
"F%	c #040404",
"G%	c #2B3317",
"H%	c #4D5146",
"I%	c #898989",
"J%	c #D8D8D8",
"K%	c #898A89",
"L%	c #2F3221",
"M%	c #1A230C",
"N%	c #060A03",
"O%	c #E3C2A4",
"P%	c #F7831C",
"Q%	c #F29440",
"R%	c #E7B588",
"S%	c #D9E0E6",
"T%	c #474E25",
"U%	c #4E5344",
"V%	c #949494",
"W%	c #5A5F53",
"X%	c #040702",
"Y%	c #6D6D6D",
"Z%	c #C7C7C7",
"`%	c #E3C2A5",
" &	c #D9E2EB",
".&	c #F3923B",
"+&	c #E8B383",
"@&	c #8C8C8C",
"#&	c #161616",
"$&	c #48522F",
"%&	c #4E583E",
"&&	c #7E807C",
"*&	c #4F5945",
"=&	c #4F562F",
"-&	c #2F341E",
";&	c #040401",
">&	c #333333",
",&	c #888888",
"'&	c #DDD5CE",
")&	c #DBDBDA",
"!&	c #EBAA70",
"~&	c #E9B07E",
"{&	c #DFCFC1",
"]&	c #3B3E34",
"^&	c #8E908D",
"/&	c #E9E9E9",
"(&	c #646760",
"_&	c #484D34",
":&	c #363E1A",
"<&	c #2C3117",
"[&	c #484848",
"}&	c #DFE4EA",
"|&	c #E5C2A3",
"1&	c #FD8418",
"2&	c #DDD6CF",
"3&	c #DCD9D7",
"4&	c #F68520",
"5&	c #E2C3A8",
"6&	c #D9E1E9",
"7&	c #242424",
"8&	c #7B7B7B",
"9&	c #A0A0A0",
"0&	c #66665D",
"a&	c #45482B",
"b&	c #2F351A",
"c&	c #31331C",
"d&	c #535353",
"e&	c #C4C4C4",
"f&	c #E5E8EB",
"g&	c #DAC6B4",
"h&	c #CE8748",
"i&	c #DDD9D5",
"j&	c #E0DCD9",
"k&	c #F98A27",
"l&	c #E7C4A5",
"m&	c #DEE3E9",
"n&	c #989998",
"o&	c #6B6D64",
"p&	c #64675D",
"q&	c #323619",
"r&	c #252C16",
"s&	c #121609",
"t&	c #3B3B3B",
"u&	c #CDCDCC",
"v&	c #A8AAAB",
"w&	c #6A7075",
"x&	c #C5C7C9",
"y&	c #CFCAC7",
"z&	c #E28838",
"A&	c #CEB096",
"B&	c #C2C6CA",
"C&	c #A4A4A4",
"D&	c #101408",
"E&	c #494A47",
"F&	c #787877",
"G&	c #4C5230",
"H&	c #0E1004",
"I&	c #030401",
"J&	c #050603",
"K&	c #060C03",
"L&	c #080C03",
"M&	c #080D04",
"N&	c #0B0F04",
"O&	c #0B0F05",
"P&	c #0D1206",
"Q&	c #0E1105",
"R&	c #4A4A49",
"S&	c #858585",
"T&	c #565755",
"U&	c #181913",
"V&	c #7B7C7B",
"W&	c #7D7C7A",
"X&	c #7B7A77",
"Y&	c #787978",
"Z&	c #7F7F7E",
"`&	c #5A5A58",
" *	c #080B03",
".*	c #060802",
"+*	c #070A03",
"@*	c #252A12",
"#*	c #2A2F17",
"$*	c #343920",
"%*	c #2F3C1E",
"  .   + + @ # $   % & * = = - = % ; > + , # ' + )   ! ) # $ # ~ $ $ { ] $ $ > ^ + ; > % / ( $ _ $ ] ",
"; ; % :     # # < < _ ] ] ] ' [ } | 1 ~ # '   % ; 2 3 4 3 5   $ + % 6 ] + ) 7 # 8 9 0 a ~ b c ' = { ",
"d e f g >   c $ < > + ' ; h h [ 6 i j + k l m n o p q q q r s t * [ [ ] '   u v : : g > c w w   +   ",
") _ x ' + ) ) * w k * _ ) ) 7   = ^   > y z q q q q q q q q q A B ' * * w ^ ) ; ) + + > w w = c + + ",
"C ] D /   E F w   ] G H - x % > c ' _ I J q q q q q q q q q q q q K L $ H - x a k ^ ' % M ' - N ] _ ",
"O * D $   1 i ' F h P { F N _ c $ _ Q R q q q q q q q S T U V W X q Y ; h Z ` i ^ *   7 %  .O } i [ ",
"$ ] { % ..+.@.} #.c x | P ; { _ f e $.q q q q q q q q %.! < &.@.*.=.-.  ;.;.E 7 x f >.;.N ,.% _ N i ",
"#.'...8 ).).@.!.E ' w } ~.{.].% e ^./.q q q q q q q q (.g _.:.<.[.}.|.^ d '.1.| % < ).% | ).2.f 3.. ",
"_ 4.d 5.6 E E E 7 0 ! ! 6 6.u 7.7.8.9.0.a.b.a.b.a.c.d.e.f E P f f.% { g.h.E f.% i.g.j.; f.% k.l.m.g.",
"n.N ;.#.f o.] % % 1   k a u p.{ 5.q.r.s.t.u.u.v.w.x.y.z.A.e B.: _ _ .   > ! u ] i.o.j.+.@.u f n.k   ",
"B.C.D.> i ' ' _ ^ w + + w _ E.F.G.H.I.J.K.L.M.N.O.P.Q.R.S._ w x ^ - ^ ' # g.w _ > T.k.>.U.B.- * ) V.",
"c x 5.h W.+ $ / ( * ^ ! ' * & X.Y.Z.`. +.+++@+#+$+%+&+*+=+m.^ $ / ( -+^   c ^ ` v ;+>+; '.,.V.- w ' ",
"/ i.w ) j ' w * ( ,+= ^ ' ) '+)+!+~+{+]+^+/+(+_+:+<+[+}+|+1+w ^ * 2+( *   w   Z _ C.v ] ] ] = _.P B.",
"* x ) { : g j ~ $ c = ' 7.: 3+4+5+6+7+8+9+0+0+0+a+b+c+d+e+f+g+^ ( $ ^ $ ] { 0 i O F %   * - _ ~._ ' ",
"$ ~   : > [ w # + h+i+j+k+l+m+n+q o+p+q+r+r+r+r+r+s+t+u+q q X v+w+x+y+i+z+[ 5._ E._ ] ) ^ V._ x / V.",
"* * c # h.} _ * $ A+q q q q q B+C+D+E+F+F+F+F+F+F+F+G+H+I+J+q q q q q q K+L+E.O % ' ' ) ^ ^ _ ^ ( ^ ",
"' ^ D / v f % * M+N+O+O+O+O+P+Q+R+S+T+U+U+U+U+U+U+U+V+W+X+Y+Z+`+`+`+`+`+ @] G ) c ) x ] $ ]   ) / ' ",
"%   w * + ) $ c .@+@@@@@@@#@X+$@%@&@T+T+T+T+T+T+T+T+*@=@=@-@;@>@>@>@>@>@,@' ) ) c g.> ; = ] 7 ! x . ",
"F >.'@  ]   7 ; )@!@~@{@{@{@]@T+V+^@^@^@^@^@^@^@^@^@^@T+V+U+/@(@(@(@_@:@<@; % ]   [@}@j...h ' g.|@:.",
":.1@2@% { % h { 3@_@4@5@5@5@6@7@^@^@^@^@^@^@^@^@^@^@^@^@^@8@5@9@9@9@0@a@b@>.:.e   ; &.+.a d x ' _ N ",
"N @.d O u 7 d % c@d@e@f@g@h@i@j@k@^@^@^@^@^@^@^@^@^@^@^@l@m@n@o@p@g@q@r@s@[ '.| % v @   ; P a g g u ",
"t@6.f.O F f f u ..u@v@w@x@y@z@A@B@^@^@^@^@^@^@^@^@^@^@^@C@D@E@F@G@H@I@J@! N K@L@[ B.[@  : { } }@> j ",
"5.E f.j % E _ h.' M@N@O@P@Q@R@S@^@^@^@^@^@^@^@^@^@^@^@^@^@T@U@V@W@X@Y@Z@g.7.F f ! ! _ ) j i o.o.w x ",
"  7 P w F = c ' * `@ #.#+#@###7@*@*@T+^@^@^@^@^@^@^@*@V+T+^@$#%#&#*#=## b     d : 0 v + ' ' - & _ ) ",
"c % 7.) [ * $ * ( * -#;#>#,#'#^@_@)#!#T+^@^@^@^@^@*@~#{#]#T+*@_@^#/#(#$ =   b _ @ a h + c ( _#,+$ k ",
") ,._ V.* = $ c   v w :#<#[#T+}#|#1#2#V+^@^@^@^@^@T+3#4#5#V+*@_@6#7#' ' = + = = c a 7   * ~ ,+^ $ w ",
"h N [ ` ^ % = = j.} v 8#W+9#0#a#b#c#d#e#f#^@^@^@*@g#h#i#j#k#V+l#m#n#i ] G ] ^ = u B.a D.# b ' _ ] - ",
"N n.C.N -   = = ].B.  o#p#q#r#s#t#u#v#w#x#^@^@^@*@y#z#A#B#C#f#D#m#E#O = _ - - % { ! h.w D   O - = ^ ",
"- - . w ] ] x ^  .  * F#G#H#I#J#K#L#M#N#*@T+f#^@T+O#P#Q#R#S#D#T#8#U#= * = ' V. .  +   x ^ ^ h % = ] ",
"- * * * V.#.W.' ) 7 = -+V#G+W#V+X#Y#Z#`#T+~# $&@^@.$+$@$#$$$%$&$*$' - = H j _ =$' c c j ' x f.f x _ ",
"- = * * ^ n.N ' % % f._ -$;$}#V+9#9#x#V+>$,$'$T+f#V+>$)$.$%$!$~${$] Z _ u [ [  .' ' ' % ' _ ^ N i d ",
"- t@i 7.e :.@.N E.# : | ]$^$/$($0#/@/@/@/@/@0#/@/@/@/@/@,$_$:$<$@.[ ^ 7.n._.'.E ' d f ,._._.] % u d ",
"[ [$_ 7.j.f @.@.i b k ,.2.}$|$1$2$3$>@>@4$5$6$7$8$>@>@>@>@9$0$} a$@.' x N a$1@| ..[ _.v d b$).6 7. .",
"E.4.6 e 5.} h f.h W.g.w C N c$d$e$f$Z+Z+g$h$:@i$`+Z+Z+`+`+X j$k$u h a g.[@#.u u [ ! ].; P [ k.1@! w ",
"n.@.6 : #.j.  ; % . ' k g i O j l$m$q q n$o$p$q$r$q q q q q Z+s$t$u$D.  k v$w$x$: y$9 !.j._ F d x g.",
"#.a >.[@>.% @ @   _ ^ + k > _ z$A$Q+B$C$D$E$F$G$q H$I$q q q q Z+J$K$x ^ L$M$N$O$P$k.k.+.k.5.x ) + c ",
"*   >.; >.G # ~ , $ ' w k # % Q$R$p#S$!@T$U$V$W$X$f#Y$Z$q q q q `$ %/ w .%H$+%p#@%#%$%> &.: * w >   ",
"* j w ) h > ] = H , c ' > + u %%&%*%=%G+-%;%D#>%X+{@,%'%q q q q `$)%!%* ~%{%_$T+]%^%8 @   > c f 2@a ",
"=      .% > % H $ + = -   ; 7./%(%_%:%>%D+<%V+9#[%}%|%1%2%q q q q q i+* ' 3%|#&@V+4%i w / w % '.% ' ",
"+ 5%= 7.g.P   c ' ,+c ^   % - 6%7%8%V+)$.$9%##'#9#0%a%b%c%d%q q q q y+b ' e%4%&@&@|#^ ^ D c v u * ' ",
") # ' + |@} > w D * H c j _ - f%g%h%i%x#j%j@k%l%j%T@m%n%o%p%q%Z+q q r%* s%t%F+&@^@u%w + * D % ^ = ^ ",
"= = w # D.@.#.g.w   ) + ' ] c ' v%w%x%x#y%z%A%B%l@T@C%D%E%.$!$F%q q G%c H%I%%@*@J%K%'@  '   E ' H + ",
"u _   b M %   k D.j.P + ' ] L%M%N%-%x%x#y%O%P%B%l@T@Q%R%S%)$}%q q q T%[ U%|#T+D#V%W%'@; = ' 7 { ] P ",
"[ #.  + ' _ { < 9 j.a : % ' Q$X%`+Y%Z%.$y%`%y@B%l@ &.&+&E%V+,$@&#&q $&%&&&x%*@D#m#*&@.j.% _ = _ F } ",
"_.>+5.#.- u _ { . w > P '.=&-&;&Z+>&,&,$6@`%y@'&)&!&~&{&l@^@f#.$I$q ]&^&S+/&]@F+(&_&:.} e } - ^ h.o.",
"E.N i _ O   Z u u ) ! . :&<&q q q q [&!@}&|&1&2&3&4&5&6&)&^@*@D#7&q 8&J%,$9&Y$0&a&i ] _ % [ F N F [ ",
"W.4.- i . Z Z ' ' i Q b&c&q q q q q d&e&f&g&h&i&j&k&l&m&f#>$q#>$I$q ,&S+n&o&p&u B.N f.% ] ^ F ;+h.x ",
"i u h { x x 7.- q&r&s&q q q q q q q t&*%u&v&w&x&y&z&A&B&p% $C&9&P+D&E&F&p&i o.3.x j 7 + { i G&B.g.g.",
") 7.j.j.;+' H ( H&I&J&K&L&M&N&O&P&Q&N%R&S&T&U&V&3@W&X&Y&Z&`& *.*+*@*#*$*%*x x i { B.| = _ ' - i   M ",
"* O h.+   # * H ( * * c ' + ^   7.G&* D 2+( * c w c u O c ^ c ~ ,+( * -+c ^ c ^ w [ E.* -+-+( D w W."};
