/* XPM */
static char * pumpkin_xpm[] = {
"50 50 523 2",
"  	c #34421D",
". 	c #434F2B",
"+ 	c #2D3B16",
"@ 	c #344217",
"# 	c #253A16",
"$ 	c #2B3415",
"% 	c #3B441D",
"& 	c #3F4328",
"* 	c #2C341A",
"= 	c #31361A",
"- 	c #393E22",
"; 	c #3C4A1E",
"> 	c #36491D",
", 	c #23290E",
"' 	c #333C1C",
") 	c #333C16",
"! 	c #3A4B25",
"~ 	c #253215",
"{ 	c #3F4522",
"] 	c #393E1D",
"^ 	c #343D21",
"/ 	c #253319",
"( 	c #242D18",
"_ 	c #3C4423",
": 	c #3B4A21",
"< 	c #3D4D22",
"[ 	c #434A24",
"} 	c #4B532B",
"| 	c #494D24",
"1 	c #465629",
"2 	c #3B4D20",
"3 	c #394817",
"4 	c #444B22",
"5 	c #394217",
"6 	c #3E4E21",
"7 	c #475929",
"8 	c #425028",
"9 	c #415022",
"0 	c #273B19",
"a 	c #2D3B1B",
"b 	c #444C26",
"c 	c #455227",
"d 	c #485429",
"e 	c #3F4C23",
"f 	c #404924",
"g 	c #434B29",
"h 	c #394720",
"i 	c #2D421A",
"j 	c #354321",
"k 	c #425428",
"l 	c #404C25",
"m 	c #424523",
"n 	c #3F4821",
"o 	c #3B4626",
"p 	c #4A4A25",
"q 	c #2E3B21",
"r 	c #414A1E",
"s 	c #464D2A",
"t 	c #323616",
"u 	c #292E14",
"v 	c #424C24",
"w 	c #2E4217",
"x 	c #4A4C2A",
"y 	c #3E4425",
"z 	c #404527",
"A 	c #474F2A",
"B 	c #303322",
"C 	c #45542C",
"D 	c #454C2C",
"E 	c #414629",
"F 	c #3E4528",
"G 	c #4B5924",
"H 	c #4B5425",
"I 	c #444C23",
"J 	c #53552C",
"K 	c #4C5527",
"L 	c #445224",
"M 	c #555C27",
"N 	c #4A531F",
"O 	c #5B5E33",
"P 	c #60643A",
"Q 	c #4E5933",
"R 	c #525B2C",
"S 	c #535B32",
"T 	c #58602E",
"U 	c #5B5D2E",
"V 	c #4E5238",
"W 	c #433E20",
"X 	c #455128",
"Y 	c #484420",
"Z 	c #3C4A23",
"` 	c #42441D",
" .	c #616D3D",
"..	c #364A22",
"+.	c #3E4A29",
"@.	c #3C4329",
"#.	c #4C5A2B",
"$.	c #5B6A35",
"%.	c #445231",
"&.	c #48502A",
"*.	c #4C5531",
"=.	c #413E1F",
"-.	c #49552B",
";.	c #3E5223",
">.	c #5B5C3B",
",.	c #525532",
"'.	c #556336",
").	c #606D36",
"!.	c #454C31",
"~.	c #545C3A",
"{.	c #292E1A",
"].	c #5D623A",
"^.	c #242D14",
"/.	c #1F2911",
"(.	c #595633",
"_.	c #333D1C",
":.	c #5F8D24",
"<.	c #74A029",
"[.	c #557028",
"}.	c #384C16",
"|.	c #547923",
"1.	c #50701F",
"2.	c #3A501D",
"3.	c #43492D",
"4.	c #443C1F",
"5.	c #654319",
"6.	c #74491B",
"7.	c #5F431B",
"8.	c #3D501D",
"9.	c #4B6D1B",
"0.	c #48671B",
"a.	c #38401A",
"b.	c #464724",
"c.	c #826C49",
"d.	c #846E4A",
"e.	c #685B37",
"f.	c #44421E",
"g.	c #7A582D",
"h.	c #A85515",
"i.	c #DF6E1D",
"j.	c #E7731F",
"k.	c #DC6F23",
"l.	c #5B431D",
"m.	c #365014",
"n.	c #4B6D1C",
"o.	c #496C1A",
"p.	c #4A6321",
"q.	c #4F421C",
"r.	c #BE5D1C",
"s.	c #E3721F",
"t.	c #DE7021",
"u.	c #DD7427",
"v.	c #AB6E3D",
"w.	c #4A4820",
"x.	c #56622E",
"y.	c #354916",
"z.	c #5B491A",
"A.	c #B0510E",
"B.	c #D06621",
"C.	c #9A4A17",
"D.	c #863F10",
"E.	c #6C3E0C",
"F.	c #476815",
"G.	c #406415",
"H.	c #4B731B",
"I.	c #4B661A",
"J.	c #68390D",
"K.	c #783B0C",
"L.	c #8F4612",
"M.	c #B65A1B",
"N.	c #CF651F",
"O.	c #E46F1D",
"P.	c #7D5D29",
"Q.	c #4B612C",
"R.	c #5A6434",
"S.	c #45511E",
"T.	c #4F3D15",
"U.	c #A25116",
"V.	c #DB6C1F",
"W.	c #B15B1C",
"X.	c #71380C",
"Y.	c #71380D",
"Z.	c #B35716",
"`.	c #AD5417",
" +	c #4B310A",
".+	c #615E16",
"++	c #5E5B18",
"@+	c #4F310A",
"#+	c #B45615",
"$+	c #DE6D1F",
"%+	c #914914",
"&+	c #6A370E",
"*+	c #944812",
"=+	c #CF671D",
"-+	c #E47326",
";+	c #70471C",
">+	c #4A4D24",
",+	c #8C4C16",
"'+	c #CD651E",
")+	c #AE5A1C",
"!+	c #6C360A",
"~+	c #90450E",
"{+	c #C96219",
"]+	c #BF631E",
"^+	c #71390C",
"/+	c #92450D",
"(+	c #C35B17",
"_+	c #CC6119",
":+	c #8E440F",
"<+	c #733B0E",
"[+	c #C36119",
"}+	c #E8711E",
"|+	c #BE5E15",
"1+	c #813F10",
"2+	c #924812",
"3+	c #D2681D",
"4+	c #B76E30",
"5+	c #44542B",
"6+	c #434926",
"7+	c #585129",
"8+	c #A85914",
"9+	c #B05519",
"0+	c #7F4012",
"a+	c #984A10",
"b+	c #D96A1D",
"c+	c #DD6D21",
"d+	c #793B0F",
"e+	c #7A3F0B",
"f+	c #D3671B",
"g+	c #EE751F",
"h+	c #F6761D",
"i+	c #D4661E",
"j+	c #723C0D",
"k+	c #7B3D0B",
"l+	c #D5691C",
"m+	c #FC7B23",
"n+	c #B95F1C",
"o+	c #703809",
"p+	c #C9631A",
"q+	c #E07B23",
"r+	c #555223",
"s+	c #504E27",
"t+	c #484A1F",
"u+	c #925625",
"v+	c #AB5A18",
"w+	c #8E4614",
"x+	c #823E10",
"y+	c #D6681B",
"z+	c #E17120",
"A+	c #AD5919",
"B+	c #71360D",
"C+	c #9D4F13",
"D+	c #DE6C1B",
"E+	c #F27E2C",
"F+	c #F4C69F",
"G+	c #EA9657",
"H+	c #99470D",
"I+	c #71380B",
"J+	c #AA5514",
"K+	c #E87323",
"L+	c #BE611B",
"M+	c #713808",
"N+	c #CE621B",
"O+	c #E9701A",
"P+	c #CE6B26",
"Q+	c #96470F",
"R+	c #B15717",
"S+	c #814212",
"T+	c #7D3E0D",
"U+	c #D86B1C",
"V+	c #DE6E1F",
"W+	c #A05219",
"X+	c #6A350A",
"Y+	c #C05E19",
"Z+	c #E46F1C",
"`+	c #F07E2C",
" @	c #F8B67E",
".@	c #F48C43",
"+@	c #C35D17",
"@@	c #6D350C",
"#@	c #9D4E11",
"$@	c #DD7022",
"%@	c #B65E1A",
"&@	c #723809",
"*@	c #CE661C",
"=@	c #D8681A",
"-@	c #E87D30",
";@	c #954913",
">@	c #AC5517",
",@	c #7C3F10",
"'@	c #944710",
")@	c #EA7623",
"!@	c #C15F1A",
"~@	c #954B15",
"{@	c #813D0E",
"]@	c #D2651A",
"^@	c #F07721",
"/@	c #F0731B",
"(@	c #F28639",
"_@	c #F38640",
":@	c #E16D1B",
"<@	c #7C3E0F",
"[@	c #8A4411",
"}@	c #CB661F",
"|@	c #B05A1A",
"1@	c #73380E",
"2@	c #B25815",
"3@	c #D5691A",
"4@	c #D1702D",
"5@	c #1C260F",
"6@	c #964A12",
"7@	c #9B4B14",
"8@	c #6D340C",
"9@	c #B75916",
"0@	c #DD6E20",
"a@	c #C15E1A",
"b@	c #743C0B",
"c@	c #B05615",
"d@	c #DA6B1E",
"e@	c #E77321",
"f@	c #F07720",
"g@	c #F07B27",
"h@	c #F17B27",
"i@	c #ED7521",
"j@	c #AA5516",
"k@	c #663407",
"l@	c #E56F1E",
"m@	c #8B4713",
"n@	c #8A470F",
"o@	c #DA6A1D",
"p@	c #CD6F2A",
"q@	c #9D4C14",
"r@	c #6D360E",
"s@	c #BA5B17",
"t@	c #DB6D1E",
"u@	c #BD5E1A",
"v@	c #72380E",
"w@	c #B65816",
"x@	c #DC6C1E",
"y@	c #DC6D1E",
"z@	c #E9741F",
"A@	c #F17720",
"B@	c #E97522",
"C@	c #C7651A",
"D@	c #6B3707",
"E@	c #C4601A",
"F@	c #EB741E",
"G@	c #8F4812",
"H@	c #81440F",
"I@	c #BB5A15",
"J@	c #AF6129",
"K@	c #974A13",
"L@	c #70370D",
"M@	c #AA5417",
"N@	c #BF5F18",
"O@	c #BF5E19",
"P@	c #B35817",
"Q@	c #DC6D1F",
"R@	c #DD6F1E",
"S@	c #E97320",
"T@	c #EB7420",
"U@	c #E67321",
"V@	c #DD6F20",
"W@	c #C4641B",
"X@	c #6C3709",
"Y@	c #B25514",
"Z@	c #E26F1E",
"`@	c #8A4512",
" #	c #88430F",
".#	c #B05313",
"+#	c #AC5E27",
"@#	c #964A13",
"##	c #9F4C15",
"$#	c #65320B",
"%#	c #9B4C14",
"&#	c #AF5516",
"*#	c #B95A18",
"=#	c #7C3F0E",
"-#	c #B35918",
";#	c #CE661D",
">#	c #DD6E1F",
",#	c #E07020",
"'#	c #C6651C",
")#	c #6D370E",
"!#	c #A24D13",
"~#	c #BB5C19",
"{#	c #864411",
"]#	c #8A430F",
"^#	c #B25413",
"/#	c #AE6028",
"(#	c #964C16",
"_#	c #9C4D15",
":#	c #633009",
"<#	c #844211",
"[#	c #B5591A",
"}#	c #AE5313",
"|#	c #773C0D",
"1#	c #AB5519",
"2#	c #B55B1C",
"3#	c #E06F1E",
"4#	c #D56C21",
"5#	c #BB5F1E",
"6#	c #6F380C",
"7#	c #A35014",
"8#	c #A75316",
"9#	c #72370C",
"0#	c #8F440E",
"a#	c #B05513",
"b#	c #A15B29",
"c#	c #3E5229",
"d#	c #754319",
"e#	c #B55618",
"f#	c #864312",
"g#	c #6F380B",
"h#	c #AB5417",
"i#	c #AD5517",
"j#	c #733910",
"k#	c #AA5316",
"l#	c #AC5515",
"m#	c #B6591C",
"n#	c #CD661E",
"o#	c #D3691F",
"p#	c #CE681E",
"q#	c #B25716",
"r#	c #A05119",
"s#	c #7A390F",
"t#	c #B45819",
"u#	c #904811",
"v#	c #74370C",
"w#	c #BB5A1A",
"x#	c #AC5112",
"y#	c #6D471F",
"z#	c #4E4920",
"A#	c #A45016",
"B#	c #934A14",
"C#	c #70380B",
"D#	c #B05719",
"E#	c #9E4D15",
"F#	c #6C360B",
"G#	c #964D12",
"H#	c #B25615",
"I#	c #AE5417",
"J#	c #B35719",
"K#	c #B25618",
"L#	c #AF5617",
"M#	c #AE5616",
"N#	c #9E4F15",
"O#	c #7C3D0E",
"P#	c #8D4815",
"Q#	c #75390D",
"R#	c #A55318",
"S#	c #884916",
"T#	c #434922",
"U#	c #606532",
"V#	c #694015",
"W#	c #74380C",
"X#	c #8C4510",
"Y#	c #B35919",
"Z#	c #894511",
"`#	c #763C0C",
" $	c #B65817",
".$	c #AF5618",
"+$	c #AE5517",
"@$	c #B1581A",
"#$	c #763A0E",
"$$	c #A25014",
"%$	c #B85A18",
"&$	c #8A4715",
"*$	c #76390B",
"=$	c #A14F15",
"-$	c #6B4C28",
";$	c #484523",
">$	c #985320",
",$	c #A35116",
"'$	c #71360A",
")$	c #834210",
"!$	c #A35017",
"~$	c #7F3E0E",
"{$	c #AB5217",
"]$	c #A85416",
"^$	c #B05716",
"/$	c #AE5919",
"($	c #974911",
"_$	c #783B0E",
":$	c #B25A1A",
"<$	c #934813",
"[$	c #77380C",
"}$	c #A45013",
"|$	c #7F4818",
"1$	c #4A5124",
"2$	c #495223",
"3$	c #83561D",
"4$	c #A35517",
"5$	c #6C350A",
"6$	c #7E3E0E",
"7$	c #8E4510",
"8$	c #A65215",
"9$	c #B15818",
"0$	c #964B15",
"a$	c #954A16",
"b$	c #783C10",
"c$	c #6E3407",
"d$	c #944E17",
"e$	c #845B31",
"f$	c #434E22",
"g$	c #415827",
"h$	c #6B6324",
"i$	c #7F6230",
"j$	c #754415",
"k$	c #6C3C11",
"l$	c #773E13",
"m$	c #683B12",
"n$	c #834714",
"o$	c #894D19",
"p$	c #6A3E14",
"q$	c #794215",
"r$	c #664016",
"s$	c #724516",
"t$	c #67451D",
"u$	c #4A4321",
"v$	c #25320F",
"w$	c #4C5230",
"x$	c #2E4020",
"  .   + + @ # $   % & * = = - = % ; > + , # ' + )   ! ) # $ # ~ $ $ { ] $ $ > ^ + ; > % / ( $ _ $ ] ",
"; ; % :     # # < < _ ] ] ] ' [ } | 1 ~ # '   % ; 2 % 3 % >   $ + % 4 ] + ) 5 # 6 7 8 9 ~ 0 a ' = { ",
"b c d e >   a $ < > + ' ; f f [ 4 g h + i j ' + > k 1 c l   a * * [ [ ] '   m n : : e > a j j   +   ",
") _ o ' + ) ) * j i * _ ) ) 5   = ^   > ) = ) ) + =           a * ' * * j ^ ) ; ) + + > j j = a + + ",
"p ] q /   r s j   ] t u - o % > a ' _ ) a { f % _ m ' a 0 + v [ ' a % $ u - o 9 i ^ ' % w ' - x ] _ ",
"y * q $   1 g ' s f v { s x _ a $ _ % 5 z _ A A m ^ = B q j C _ ' % < ; f D E g ^ *   5 % F y } g [ ",
"$ ] { % 3 G H } l a o | v ; { _ d c I J H   = 5 5 ) ] y ! < K H H % #   I I r 5 o d L I x A % _ x g ",
"l J 3 6 M M H N r ' j } O P Q % c O r | R J 4 ] ) s } h e S R } H b * ^ b J T | % < M % | M U d V . ",
"_ W b X 4 r r r 5 8 ! ! 4 Y m Z Z Q e 5 ` O  .> # % ` p d r v d ` % { ..+.r ` % @...#.; ` % $. .%...",
"&.x I l d *.] % % 1   i 9 m =.{ X *.1 K 4 g 8 + ..} x A b c C : _ _ .   > ! m ] @.*.#.G H m d &.i   ",
"C -.;.> g ' ' _ ^ j + + j _ z h S >.,.$.} ' = ) > C *.l Z _ j o ^ - ^ ' # ..j _ > '.$.L ).C - * ) B ",
"a o X f !.+ $ / ( * ^ ! ' * & j ~.>.z -.g ] o Z + 0 ! v 1 %.^ $ / ( {.^   a ^ E n ~.].; J A B - j ' ",
"/ @.j ) h ' j * ( ^.= ^ ' ) y y +.z ' ' ] - V ~.e 0 ]   ' Z j ^ * /.( *   j   D _ -.n ] ] ] = S v C ",
"* o ) { : e h ~ $ a = ' Z : Z o o y ] * ^ g (.z B a j ^ & _ n ^ ( $ ^ $ ] { 8 g y s %   * - _ O _ ' ",
"$ ~   : > [ j # + ~ * _ h n % [ { ' ] ^ ' { _ = ' _.:.<.[.o ! ^ {.+ ~ * ^ [ X _ z _ ] ) ^ B _ o / B ",
"* * a # +.} _ * $ a {.) { _ m % ' B ^ = ] { B * ] }.|.1.2.C S g * B q / j 3.z y % ' ' ) ^ ^ _ ^ ( ^ ",
"' ^ q / n d % * ' _ {.+ = = = ' + o 4.5.6.7.t ' 8.9.0.a.b.c.d.e.* o _ = a ] t ) a ) o ] $ ]   ) / ' ",
"%   j * + ) $ a e #.[ + - ^ B 0 f.g.h.i.j.k.l.m.n.o.p.q.r.s.t.u.v.w.x.d = ' ) ) a ..> ; = ] 5 ! o . ",
"s L y.  ]   5 ; #.H d n f % ) + z.A.t.B.C.D.E.F.G.H.I.J.K.L.M.N.O.P.H d I ; % ]   2 Q.#.3 f ' ..k R ",
"R R.S.% { % f { l ) ; } L K L T.U.V.W.X.Y.Z.`. +.+++@+#+$+%+&+*+=+-+;+_ H L R c   ; K G 9 b o ' _ x ",
"x H b y m 5 b % ; + ..;.v J >+,+'+)+!+~+{+]+^+/+(+_+:+<+[+}+|+1+2+3+4+5+l [ J | % n @   ; v 9 e e m ",
"6+Y ` y s d d m 3 n > o &.H 7+8+9+0+a+b+c+d+e+f+g+h+i+j+k+l+m+n+o+p+q+r+! x s+t+[ C 2   : { } Q.> h ",
"X r ` h % r _ +.' a a j v I u+v+w+x+y+z+A+B+C+D+E+F+G+H+I+J+K+L+M+N+O+P+..Z s d ! ! _ ) h g *.*.j o ",
"  5 v j s = a ' * * 0 q + a Q+R+S+T+U+V+W+X+Y+Z+`+ @.@+@@@#@$@%@&@*@=@-@0     b : 8 n + ' ' - & _ ) ",
"a % Z ) [ * $ * ( * * 0 i 0 ;@>@,@'@)@!@~@{@]@^@/@(@_@:@<@[@}@|@1@2@3@4@=   0 _ @ 9 f + a ( 5@^.$ i ",
") A _ B * = $ a   n j $ ) a 6@7@8@9@0@a@b@c@d@e@f@g@h@i@j@k@!@l@m@n@o@p@= + = = a 9 5   * ~ ^.^ $ j ",
"f x [ E ^ % = = #.} n = = ' 6@q@r@s@t@u@v@w@x@y@z@A@^@B@C@D@E@F@G@H@I@J@t ] ^ = m C 9 ;.# 0 ' _ ] - ",
"x &.-.x -   = = Q C   ^ j _ K@q@L@M@N@O@Y.P@Q@R@S@T@U@V@W@X@Y@Z@`@ #.#+#_ - - % { ! +.j q   y - = ^ ",
"- - . j ] ] o ^ F   * ' ' ' @###$#%#&#*#=#-#;#t@>#y@y@,#'#)#!#~#{#]#^#/#= ' B F   +   o ^ ^ f % = ] ",
"- * * * B l !.' ) 5 = {.y - (#_#:#<#[#}#|#1#2#*@t@V+3#4#5#6#7#8#9#0#a#b#u h _ c#' a a h ' o ` d o _ ",
"- = * * ^ &.x ' % % ` _ g [ d#e#f#g#h#i#j#k#l#m#n#o#p#q#r#s#t#u#v#w#x#y#m [ [ F ' ' ' % ' _ ^ x g b ",
"- 6+g Z c R H x z # : | J } z#A#B#C#D#E#F#G#H#I#J#K#L#M#N#O#-#P#Q#R#S#T#&.S J r ' b d A S S ] % m b ",
"[ ,._ Z #.d H H g 0 i A U U#H V#L#W#X#Y#Z#`# $.$>@>@+$@$#$$$%$&$*$=$-$o x (.R.| 3 [ S n b >.M 4 Z F ",
"z W 4 c X } f ` f !...j p x 6+;$>$,$'$)$!$~${$]$^$M#/$($_$:$<$[$}$|$1$..2 l m m [ ! Q ; v [ $.R.! j ",
"&.H 4 : l #.  ; % . ' i e g y h 2$3$4$5$6$%+X.7$8$9$0$)#a$b$c$d$e$f$;.  i 2 f ] : g$7 N #._ s b o ..",
"l 9 L 2 L % @ @   _ ^ + i > _ ! '.$.h$i$j$k$l$m$n$o$p$q$r$s$t$u$j   o ^ i i ; : > $.$.G $.X o ) + a ",
"*   L ; L t # ~ , $ ' j i # % % K S r G b * _ ; w # < C 9 < a # ~ /./ j ..i # n ; G x.> K : * j >   ",
"* h j ) f > ] = u , a ' > + m h v l 5 % _ @.b G > + 2 h   ; i + 0 /.u *   j   s 3 #.6 @   > a d S.9 ",
"=     F % > % u $ + = -   ; Z Z n m ] ~ ] [ K r + q i o F ; > ' u * * * ' _ ! ! : y g j / j % J % ' ",
"+ v$= Z ..v   a ' ^.a ^   % - F ` t ] a a [ m * q = ~ ' o ^   ' * * ~ 0 ' _ g ' +.- ^ ^ q a n m * ' ",
") # ' + k } > j q * u a h _ - - ' % ' 0 ) _ ' = ^ = * * a 8 } _ ( * 0 * ' m m ] ' ^ j + * q % ^ = ^ ",
"= = j # ;.H l ..j   ) + ' ] a '   . ^ +   % ) * = ) ] ' a 8 1 ] ( * ' a $ ' ' ^ + i y.  '   r ' u + ",
"m _   0 w %   i ;.#.v + ' ] B   w Z f   ' % % ' | r ] q q ^ ] ~ * r R [ ) ' = ] a   y.; = ' 5 { ] v ",
"[ l   + ' _ { < 7 #.9 : % ' % h { S K % % = ] } M H 3 _ 0 a ' _ 4 -.Q 8 e { ] ' q > H #.% _ = _ s } ",
"S ].X l - m _ { . j > v J S *.- &.~.*.d s ] = g -.O R 9 h { _ m y g '   } K P d j { R } c } - ^ +.*.",
"z x g _ y   D m m ) ! . % } } m m ' _ m f d &.d f z z [ h _ [ z _ - j D S A x x m g ] _ % [ s x s [ ",
"!.W - g . D D ' ' g % _ ,.A g w$. z - ] % ,.~.  { p W m e Z w$C ' ] g _ D ~.[ m C x ` % ] ^ s ~.+.o ",
"g m f { o o Z - ] * * j . s w$..j % B _ g d Q j   s 4 b +.    Z z ' = = [ g *.V o h 5 + { g w$C ....",
") Z #.#.~.' u ( u * B x$  j Z +.C A a   ' j { ' 0 0 _ . *.~.' $ * u u = a o o g { C | = _ ' - g   w ",
"* y +.+   # * u ( * * a ' + ^   Z w$* q /.( * a j a m y a ^ a ~ ^.( * {.a ^ a ^ j [ z * {.{.( q j !."};
